{
    "asset" : {
        "generator" : "Khronos glTF Blender I/O v1.4.40",
        "version" : "2.0"
    },
    "scene" : 0,
    "scenes" : [
        {
            "name" : "Scene",
            "nodes" : [
                0
            ]
        }
    ],
    "nodes" : [
        {
            "mesh" : 0,
            "name" : "block"
        }
    ],
    "materials" : [
        {
            "name" : "grass",
            "pbrMetallicRoughness" : {
                "baseColorFactor" : [
                    0.10588235408067703,
                    0.7529411911964417,
                    0.5254902243614197,
                    1
                ]
            }
        },
        {
            "name" : "dirt.001",
            "pbrMetallicRoughness" : {
                "baseColorFactor" : [
                    0.8784313797950745,
                    0.5764706134796143,
                    0.37254902720451355,
                    1
                ]
            }
        }
    ],
    "meshes" : [
        {
            "name" : "Mesh block",
            "primitives" : [
                {
                    "attributes" : {
                        "POSITION" : 0,
                        "NORMAL" : 1,
                        "TEXCOORD_0" : 2
                    },
                    "indices" : 3,
                    "material" : 0
                },
                {
                    "attributes" : {
                        "POSITION" : 4,
                        "NORMAL" : 5,
                        "TEXCOORD_0" : 6
                    },
                    "indices" : 7,
                    "material" : 1
                }
            ]
        }
    ],
    "accessors" : [
        {
            "bufferView" : 0,
            "componentType" : 5126,
            "count" : 324,
            "max" : [
                0.633027970790863,
                1,
                0.633027970790863
            ],
            "min" : [
                -0.633027970790863,
                0.7695886492729187,
                -0.633027970790863
            ],
            "type" : "VEC3"
        },
        {
            "bufferView" : 1,
            "componentType" : 5126,
            "count" : 324,
            "type" : "VEC3"
        },
        {
            "bufferView" : 2,
            "componentType" : 5126,
            "count" : 324,
            "type" : "VEC2"
        },
        {
            "bufferView" : 3,
            "componentType" : 5123,
            "count" : 342,
            "type" : "SCALAR"
        },
        {
            "bufferView" : 4,
            "componentType" : 5126,
            "count" : 20,
            "max" : [
                0.5,
                1,
                0.5
            ],
            "min" : [
                -0.5,
                0,
                -0.5
            ],
            "type" : "VEC3"
        },
        {
            "bufferView" : 5,
            "componentType" : 5126,
            "count" : 20,
            "type" : "VEC3"
        },
        {
            "bufferView" : 6,
            "componentType" : 5126,
            "count" : 20,
            "type" : "VEC2"
        },
        {
            "bufferView" : 7,
            "componentType" : 5123,
            "count" : 30,
            "type" : "SCALAR"
        }
    ],
    "bufferViews" : [
        {
            "buffer" : 0,
            "byteLength" : 3888,
            "byteOffset" : 0
        },
        {
            "buffer" : 0,
            "byteLength" : 3888,
            "byteOffset" : 3888
        },
        {
            "buffer" : 0,
            "byteLength" : 2592,
            "byteOffset" : 7776
        },
        {
            "buffer" : 0,
            "byteLength" : 684,
            "byteOffset" : 10368
        },
        {
            "buffer" : 0,
            "byteLength" : 240,
            "byteOffset" : 11052
        },
        {
            "buffer" : 0,
            "byteLength" : 240,
            "byteOffset" : 11292
        },
        {
            "buffer" : 0,
            "byteLength" : 160,
            "byteOffset" : 11532
        },
        {
            "buffer" : 0,
            "byteLength" : 60,
            "byteOffset" : 11692
        }
    ],
    "buffers" : [
        {
            "byteLength" : 11752,
            "uri" : "data:application/octet-stream;base64,"
        }
    ]
}
